<svg width="24" height="24" viewBox="0 0 24 24" fill="none" xmlns="http://www.w3.org/2000/svg">
<path fill-rule="evenodd" clip-rule="evenodd" d="M11.9993 13.4139L17.6563 19.0709C17.8449 19.2531 18.0975 19.3539 18.3597 19.3516C18.6219 19.3493 18.8727 19.2441 19.0582 19.0587C19.2436 18.8733 19.3487 18.6225 19.351 18.3603C19.3533 18.0981 19.2525 17.8455 19.0703 17.6569L13.4133 11.9999L19.0703 6.34291C19.2525 6.1543 19.3533 5.9017 19.351 5.6395C19.3487 5.37731 19.2436 5.1265 19.0582 4.94109C18.8727 4.75568 18.6219 4.65051 18.3597 4.64823C18.0975 4.64595 17.8449 4.74675 17.6563 4.92891L11.9993 10.5859L6.34233 4.92891C6.15288 4.75125 5.90175 4.65427 5.64207 4.65849C5.38238 4.6627 5.13453 4.76779 4.95094 4.9515C4.76736 5.13521 4.66245 5.38314 4.65842 5.64283C4.65439 5.90251 4.75155 6.15358 4.92933 6.34291L10.5853 11.9999L4.92833 17.6569C4.83282 17.7492 4.75664 17.8595 4.70423 17.9815C4.65182 18.1035 4.62424 18.2347 4.62308 18.3675C4.62193 18.5003 4.64723 18.632 4.69751 18.7549C4.74779 18.8778 4.82205 18.9894 4.91594 19.0833C5.00983 19.1772 5.12148 19.2514 5.24438 19.3017C5.36728 19.352 5.49896 19.3773 5.63174 19.3762C5.76452 19.375 5.89574 19.3474 6.01774 19.295C6.13974 19.2426 6.25009 19.1664 6.34233 19.0709L11.9993 13.4139Z" fill="black"/>
</svg>
